<svg id="visual" viewBox="0 0 960 540" width="960" height="540" xmlns="http://www.w3.org/2000/svg" xmlns:xlink="http://www.w3.org/1999/xlink" version="1.1"><rect x="0" y="0" width="960" height="540" fill="#001122"></rect><path d="M0 396L22.8 386.7C45.7 377.3 91.3 358.7 137 363.5C182.7 368.3 228.3 396.7 274 399.7C319.7 402.7 365.3 380.3 411.2 378.7C457 377 503 396 548.8 403.8C594.7 411.7 640.3 408.3 686 398.7C731.7 389 777.3 373 823 375.8C868.7 378.7 914.3 400.3 937.2 411.2L960 422L960 541L937.2 541C914.3 541 868.7 541 823 541C777.3 541 731.7 541 686 541C640.3 541 594.7 541 548.8 541C503 541 457 541 411.2 541C365.3 541 319.7 541 274 541C228.3 541 182.7 541 137 541C91.3 541 45.7 541 22.8 541L0 541Z" fill="#CCCCCC" stroke-linecap="round" stroke-linejoin="miter"></path></svg>